<mxfile host="65bd71144e">
    <diagram id="R2lEEEUBdFMjLlhIrx00" name="Page-1">
        <mxGraphModel dx="1122" dy="3889" grid="1" gridSize="10" guides="1" tooltips="1" connect="1" arrows="1" fold="1" page="1" pageScale="1" pageWidth="500" pageHeight="300" math="0" shadow="0" extFonts="Permanent Marker^https://fonts.googleapis.com/css?family=Permanent+Marker">
            <root>
                <mxCell id="0"/>
                <mxCell id="1" parent="0"/>
                <mxCell id="124" style="edgeStyle=none;html=1;endArrow=none;endFill=0;fontSize=11;" parent="1" source="112" target="188" edge="1">
                    <mxGeometry relative="1" as="geometry">
                        <mxPoint x="266.99987102691466" y="-2805.2550622557505" as="targetPoint"/>
                    </mxGeometry>
                </mxCell>
                <mxCell id="112" value="&lt;font&gt;Usuario&lt;span style=&quot;background-color: transparent;&quot;&gt;&amp;nbsp;Autenticado&lt;/span&gt;&lt;/font&gt;" style="shape=umlActor;verticalLabelPosition=bottom;verticalAlign=top;html=1;outlineConnect=0;fontSize=11;" parent="1" vertex="1">
                    <mxGeometry x="40.00000000000017" y="-2927.5" width="30" height="60" as="geometry"/>
                </mxCell>
                <mxCell id="201" style="edgeStyle=none;html=1;dashed=1;fontSize=11;" parent="1" source="203" target="188" edge="1">
                    <mxGeometry relative="1" as="geometry">
                        <mxPoint x="325" y="-2897" as="targetPoint"/>
                    </mxGeometry>
                </mxCell>
                <mxCell id="202" value="&amp;lt;&amp;lt;Extend&amp;gt;&amp;gt;" style="edgeLabel;html=1;align=center;verticalAlign=middle;resizable=0;points=[];fontSize=11;" parent="201" vertex="1" connectable="0">
                    <mxGeometry x="-0.2385" y="1" relative="1" as="geometry">
                        <mxPoint x="-30" y="13" as="offset"/>
                    </mxGeometry>
                </mxCell>
                <mxCell id="188" value="Explorar estrategias&lt;div&gt;--------------------------------------&lt;/div&gt;&lt;div&gt;&lt;b&gt;Extension Points&lt;/b&gt;&lt;/div&gt;&lt;div&gt;&lt;span style=&quot;color: rgb(0, 0, 0);&quot;&gt;Configurar estrategia&lt;/span&gt;&lt;/div&gt;&lt;div&gt;&lt;span style=&quot;color: rgb(0, 0, 0);&quot;&gt;Crear estrategia&lt;/span&gt;&lt;/div&gt;" style="ellipse;whiteSpace=wrap;html=1;fontSize=11;" parent="1" vertex="1">
                    <mxGeometry x="125" y="-2940" width="146.82" height="85" as="geometry"/>
                </mxCell>
                <mxCell id="189" value="" style="endArrow=classic;html=1;dashed=1;fontSize=11;" parent="1" source="191" target="188" edge="1">
                    <mxGeometry width="50" height="50" relative="1" as="geometry">
                        <mxPoint x="425" y="-2883.52" as="sourcePoint"/>
                        <mxPoint x="365" y="-2903.52" as="targetPoint"/>
                    </mxGeometry>
                </mxCell>
                <mxCell id="190" value="&amp;lt;&amp;lt;Extend&amp;gt;&amp;gt;" style="edgeLabel;html=1;align=center;verticalAlign=middle;resizable=0;points=[];fontSize=11;" parent="189" vertex="1" connectable="0">
                    <mxGeometry x="-0.129" y="1" relative="1" as="geometry">
                        <mxPoint x="-35" as="offset"/>
                    </mxGeometry>
                </mxCell>
                <mxCell id="191" value="Configurar estrategia" style="ellipse;whiteSpace=wrap;html=1;fontSize=11;" parent="1" vertex="1">
                    <mxGeometry x="70" y="-2811" width="130" height="51" as="geometry"/>
                </mxCell>
                <mxCell id="192" value="" style="endArrow=classic;html=1;dashed=1;fontSize=11;" parent="1" source="194" target="188" edge="1">
                    <mxGeometry width="50" height="50" relative="1" as="geometry">
                        <mxPoint x="449" y="-2792.04" as="sourcePoint"/>
                        <mxPoint x="391" y="-2765.04" as="targetPoint"/>
                    </mxGeometry>
                </mxCell>
                <mxCell id="193" value="&amp;lt;&amp;lt;Extend&amp;gt;&amp;gt;" style="edgeLabel;html=1;align=center;verticalAlign=middle;resizable=0;points=[];fontSize=11;" parent="192" vertex="1" connectable="0">
                    <mxGeometry x="-0.129" y="1" relative="1" as="geometry">
                        <mxPoint x="-5" y="14" as="offset"/>
                    </mxGeometry>
                </mxCell>
                <mxCell id="194" value="Aplicar filtros por nombre, exchange y par" style="ellipse;whiteSpace=wrap;html=1;fontSize=11;" parent="1" vertex="1">
                    <mxGeometry x="330" y="-2922.5" width="150" height="55" as="geometry"/>
                </mxCell>
                <mxCell id="203" value="Crear estrategia" style="ellipse;whiteSpace=wrap;html=1;fontSize=11;" parent="1" vertex="1">
                    <mxGeometry x="290" y="-2803.74" width="90" height="36.48" as="geometry"/>
                </mxCell>
                <mxCell id="204" style="edgeStyle=none;html=1;dashed=1;fontSize=11;" parent="1" source="203" target="191" edge="1">
                    <mxGeometry relative="1" as="geometry">
                        <mxPoint x="265" y="-2915" as="targetPoint"/>
                        <mxPoint x="317" y="-2941" as="sourcePoint"/>
                    </mxGeometry>
                </mxCell>
                <mxCell id="205" value="&amp;lt;&amp;lt;Extend&amp;gt;&amp;gt;" style="edgeLabel;html=1;align=center;verticalAlign=middle;resizable=0;points=[];fontSize=11;" parent="204" vertex="1" connectable="0">
                    <mxGeometry x="-0.2385" y="1" relative="1" as="geometry">
                        <mxPoint x="-6" y="8" as="offset"/>
                    </mxGeometry>
                </mxCell>
            </root>
        </mxGraphModel>
    </diagram>
</mxfile>